<svg width="1919" height="380" viewBox="0 0 1919 380" fill="none" xmlns="http://www.w3.org/2000/svg">
<path fill-rule="evenodd" clip-rule="evenodd" d="M0 61.1927L52.7725 50.3752C107.144 39.5578 212.689 17.9229 319.833 7.10548C426.977 -3.71196 532.522 -3.71196 639.667 17.9229C746.811 39.5578 852.356 82.8275 959.5 104.462C1066.64 126.097 1172.19 126.097 1279.33 100.857C1386.48 75.6159 1492.02 25.1345 1599.17 17.9229C1706.31 10.7113 1811.86 46.7694 1866.23 64.7985L1919 82.8275V147.732H1866.23C1811.86 147.732 1706.31 147.732 1599.17 147.732C1492.02 147.732 1386.48 147.732 1279.33 147.732C1172.19 147.732 1066.64 147.732 959.5 147.732C852.356 147.732 746.811 147.732 639.667 147.732C532.522 147.732 426.977 147.732 319.833 147.732C212.689 147.732 107.144 147.732 52.7725 147.732H0V61.1927Z" fill="#EFF7FF"/>
<rect y="147.732" width="1919" height="232.268" fill="#EFF7FF"/>
</svg>
