<svg width="540" height="335" viewBox="0 0 540 335" fill="none" xmlns="http://www.w3.org/2000/svg">
<rect width="540" height="335" fill="#EFF7FF"/>
<path d="M396.042 111.959C400 113.938 407.917 127 407.917 135.709C407.917 144.417 402.613 147.584 396.042 147.584C389.471 147.584 384.167 146.396 384.167 137.688C384.167 128.979 392.083 123.834 396.042 111.959ZM451.458 179.25C471.25 179.25 487.083 195.084 487.083 214.875C487.083 227.225 480.829 238.071 471.25 244.484V290.084H328.75V244.484C319.171 238.071 312.917 227.225 312.917 214.875C312.917 195.084 328.75 179.25 348.542 179.25H384.167V155.5H407.917V179.25H451.458ZM400 234.667C405.249 234.667 410.283 232.582 413.995 228.87C417.707 225.158 419.792 220.124 419.792 214.875H431.667C431.667 220.124 433.752 225.158 437.464 228.87C441.175 232.582 446.209 234.667 451.458 234.667C456.708 234.667 461.742 232.582 465.453 228.87C469.165 225.158 471.25 220.124 471.25 214.875C471.25 209.626 469.165 204.592 465.453 200.88C461.742 197.169 456.708 195.084 451.458 195.084H348.542C343.293 195.084 338.259 197.169 334.547 200.88C330.835 204.592 328.75 209.626 328.75 214.875C328.75 220.124 330.835 225.158 334.547 228.87C338.259 232.582 343.293 234.667 348.542 234.667C353.791 234.667 358.825 232.582 362.537 228.87C366.248 225.158 368.333 220.124 368.333 214.875H380.208C380.208 220.124 382.294 225.158 386.005 228.87C389.717 232.582 394.751 234.667 400 234.667V234.667Z" fill="#D6EAFF"/>
<path d="M147.708 44.8336C151.792 44.8332 155.826 45.7355 159.52 47.4759C163.214 49.2164 166.478 51.7519 169.078 54.9011C171.678 58.0504 173.55 61.7354 174.56 65.6924C175.569 69.6495 175.692 73.7808 174.918 77.7907L174.799 78.3132C181.687 80.6107 187.708 84.9568 192.058 90.77C196.408 96.5833 198.878 103.586 199.139 110.842C199.4 118.098 197.439 125.26 193.517 131.371C189.596 137.481 183.903 142.249 177.198 145.035L168.6 196.549C168.293 198.397 167.34 200.077 165.911 201.289C164.481 202.501 162.669 203.166 160.795 203.167H79.2055C77.3315 203.166 75.5187 202.501 74.0894 201.289C72.66 200.077 71.7069 198.397 71.3996 196.549L63.2534 147.703C57.7745 147.392 52.5722 145.193 48.531 141.481C44.4897 137.768 41.8588 132.771 41.0854 127.338C40.3121 121.905 41.4441 116.372 44.2889 111.679C47.1337 106.986 51.5159 103.423 56.6905 101.596L56.6667 100.25C56.6658 92.2339 58.6938 84.3477 62.5617 77.3263C66.4297 70.3048 72.0117 64.3764 78.7879 60.0933C85.5642 55.8103 93.3142 53.3119 101.316 52.8308C109.318 52.3497 117.312 53.9016 124.552 57.342C127.069 53.4972 130.504 50.3402 134.547 48.1563C138.59 45.9724 143.113 44.8304 147.708 44.8336V44.8336ZM112.083 147.75H96.25V187.334H112.083V147.75ZM143.75 147.75H127.917V187.334H143.75V147.75ZM163.542 131.917C166.468 131.917 169.358 131.268 172.003 130.017C174.648 128.766 176.983 126.944 178.84 124.682C180.696 122.42 182.028 119.775 182.74 116.936C183.451 114.098 183.524 111.137 182.954 108.267C182.383 105.397 181.183 102.689 179.441 100.339C177.698 97.9878 175.456 96.0528 172.875 94.6728C170.295 93.2928 167.441 92.5021 164.518 92.3577C161.595 92.2134 158.677 92.7188 155.973 93.8378L154.588 94.479C150.935 96.3614 146.693 96.7498 142.759 95.562C138.825 94.3742 135.507 91.7034 133.506 88.114L132.952 87.0295C130.422 81.5229 126.365 76.8579 121.262 73.5882C116.16 70.3186 110.227 68.5817 104.167 68.5836C87.2092 68.5836 73.363 81.9153 72.5396 98.4057L72.5 99.9653L72.5238 101.311C72.5798 104.42 71.7192 107.476 70.0495 110.099C68.3798 112.722 65.9749 114.795 63.1346 116.06L61.9471 116.527C60.1893 117.153 58.7087 118.379 57.7661 119.989C56.8235 121.6 56.4795 123.491 56.7945 125.33C57.1096 127.17 58.0635 128.839 59.4883 130.043C60.9131 131.248 62.7174 131.912 64.5834 131.917H163.542Z" fill="#D6EAFF"/>
</svg>
